<?xml version="1.0" encoding="utf-8"?>
<!-- Svg Vector Icons : http://www.onlinewebfonts.com/icon -->
<!DOCTYPE svg PUBLIC "-//W3C//DTD SVG 1.1//EN" "http://www.w3.org/Graphics/SVG/1.1/DTD/svg11.dtd">
<svg version="1.1" xmlns="http://www.w3.org/2000/svg" xmlns:xlink="http://www.w3.org/1999/xlink" x="0px" y="0px" viewBox="0 0 1000 1000" enable-background="new 0 0 1000 1000" xml:space="preserve">
<metadata> Svg Vector Icons : http://www.onlinewebfonts.com/icon </metadata>
<g><path d="M500,10C229.4,10,10,229.4,10,500c0,270.6,219.4,490,490,490c270.6,0,490-219.4,490-490C990,229.4,770.6,10,500,10z M199.7,199.7L199.7,199.7c34.4-34.3,73.7-62.2,117.1-83c-31.5,42-57.9,94.6-76.9,154.6H142C158.5,245.6,177.8,221.6,199.7,199.7z M107.8,336.7h114.9c-8.8,41.3-14.3,85.1-16.1,130.7h-130C79.9,422.2,90.5,378.4,107.8,336.7z M76.6,532.7h130c1.8,45.5,7.3,89.4,16.1,130.7H107.8C90.4,621.6,79.9,577.8,76.6,532.7z M199.7,800.2c-21.9-21.9-41.2-45.9-57.7-71.6h97.9c19,60,45.3,112.5,76.9,154.6C273.3,862.4,234,834.6,199.7,800.2z M467.3,919.8c-14.9-4.3-29.7-11.6-44.1-21.8c-27.1-19.1-53.1-48.6-75.1-85.2c-15.2-25.3-28.3-53.5-39.3-84.2h158.5V919.8z M467.3,663.3H289.6c-9.8-41.8-15.7-85.6-17.6-130.7h195.3V663.3z M467.3,467.3H272c1.9-45.1,7.8-88.8,17.6-130.7h177.6V467.3z M467.3,271.4H308.8c11-30.7,24.1-58.8,39.3-84.2c22-36.7,48-66.1,75.1-85.2c14.5-10.2,29.2-17.5,44.1-21.8V271.4z M532.6,80.2c14.9,4.3,29.7,11.6,44.1,21.8c27.1,19.1,53.1,48.6,75.1,85.2c15.2,25.3,28.3,53.5,39.3,84.2H532.6V80.2z M532.6,336.7h177.6c9.8,41.8,15.7,85.6,17.6,130.7H532.6V336.7z M532.6,532.7h195.3c-1.9,45.1-7.8,88.8-17.6,130.7H532.6V532.7z M576.8,898c-14.5,10.2-29.2,17.5-44.1,21.8l-0.1-191.2h158.5c-11,30.7-24.1,58.9-39.2,84.2C629.9,849.5,603.9,879,576.8,898z M800.3,800.2c-34.4,34.4-73.7,62.2-117.1,83c31.6-42,57.9-94.6,76.9-154.6H858C841.5,754.4,822.2,778.4,800.3,800.2z M892.1,663.3H777.2c8.8-41.3,14.3-85.1,16.1-130.7h130C920,577.8,909.5,621.6,892.1,663.3z M923.4,467.3h-130c-1.8-45.5-7.3-89.4-16.1-130.7h114.9C909.5,378.4,920,422.2,923.4,467.3z M760.1,271.4c-19-60-45.3-112.6-76.9-154.6c43.4,20.8,82.8,48.6,117.1,83c21.9,21.9,41.2,45.9,57.7,71.6H760.1z"/></g>
</svg>